<svg width="73" height="55" viewBox="0 0 73 55" fill="none" xmlns="http://www.w3.org/2000/svg" class="h-[30px] sm:h-[50px] lg:h-[60px] w-fit"><g clip-path="url(#clip0_1223_4452)"><path d="M42.647 18.6359L55.8627 45.2755L56.9421 46.1405L57.263 45.7224L56.2711 44.9584L43.1283 18.4053L42.647 18.6359Z" fill="white"></path><path d="M33.0194 15.0179H23.9026C23.9026 15.0179 16.8864 15.2918 13.4876 21.3463C10.0889 27.4007 11.5038 35.7761 17.3386 39.3367C23.1733 42.8973 26.1053 42.2774 27.9286 39.0628C29.7374 35.8481 40.8963 13.9656 40.8963 13.9656C40.8963 13.9656 42.5884 9.79956 45.5349 12.2502L61.3908 44.0072C61.3908 44.0072 62.0764 45.1172 60.6031 45.1172C59.1299 45.1172 57.5982 45.3911 56.8106 43.791C56.0229 42.1765 43.7262 17.31 43.7262 17.31C43.7262 17.31 42.9822 16.7045 42.4863 17.7568C41.9757 18.8092 30.423 42.1909 30.423 42.1909C30.423 42.1909 28.4391 45.074 25.4343 45.247C22.0793 45.4344 10.2056 42.3639 8.33848 31.8118C6.47136 21.2598 14.1732 12.3222 24.1944 11.6591H33.4862C33.4862 11.6591 34.8428 11.9907 34.6677 13.3746C34.4927 14.744 33.6467 14.8594 33.0194 15.0179Z" fill="white"></path><path d="M45.331 42.3204L42.4574 44.2376L36.8853 35.5452C36.8853 35.5452 52.3181 32.2152 68.4949 23.7822L68.5387 23.9696C68.5387 23.9696 53.8352 32.763 43.3618 36.7561L45.331 42.3204Z" fill="white"></path><path d="M14.4359 0.328613C6.76319 0.328613 0.52002 6.45515 0.52002 13.98V40.6628C0.52002 48.1877 6.76319 54.3142 14.4359 54.3142H58.9987C66.6714 54.3142 72.9145 48.1877 72.9145 40.6628V13.98C72.9145 6.45515 66.6714 0.328613 58.9987 0.328613H14.4359ZM1.14725 40.6773V13.98C1.14725 6.7867 7.11327 0.948474 14.4359 0.948474H58.9987C66.3359 0.948474 72.2873 6.80112 72.2873 13.98V40.6628C72.2873 47.8561 66.3213 53.6943 58.9987 53.6943H14.4359C7.11327 53.7088 1.14725 47.8561 1.14725 40.6773Z" fill="white"></path></g><defs><clipPath id="clip0_1223_4452"><rect width="72.4091" height="54" fill="white" transform="translate(0.52002 0.328613)"></rect></clipPath></defs></svg>