<svg width="169" height="55" viewBox="0 0 169 55" fill="none" xmlns="http://www.w3.org/2000/svg" class="h-[25px] sm:h-[50px] w-fit "><path d="M2.73905 27.3074L27.6785 2.36795L52.6179 27.3074L27.6785 52.2468L2.73905 27.3074ZM27.6785 0.328613L0.657227 27.3499L27.636 54.3286L54.6572 27.3074L27.6785 0.328613Z" fill="#008043"></path><path d="M21.1354 11.5878L27.6783 5.04492L49.9836 27.3502L43.4407 33.8931L21.1354 11.5878ZM35.5808 41.753L42.1236 35.2101L27.7208 20.8073L21.1354 27.3077L35.5808 41.753ZM27.6783 49.613L34.2212 43.0701L27.6783 36.5272L21.1354 43.0701L27.6783 49.613ZM18.5013 27.3077L26.3612 19.4478L19.8184 12.9049L5.37305 27.3502L19.7759 41.753L26.3188 35.2101L18.5013 27.3077Z" fill="#008043"></path><path d="M71.0145 33.4678H71.7793L74.4984 39.8407H73.4787L72.8415 38.2687H69.8249L69.1876 39.8407H68.168L71.0145 33.4678ZM72.544 37.504L71.3544 34.5724L70.1648 37.504H72.544Z" fill="#008043"></path><path d="M78.8321 39.8409H78.0248V39.2036C77.9398 39.416 77.7274 39.6285 77.515 39.7559C77.2601 39.8834 76.9627 39.9684 76.6228 39.9684C76.4103 39.9684 76.1979 39.9259 76.028 39.8834C75.858 39.8409 75.6881 39.7134 75.5181 39.586C75.3907 39.4585 75.2632 39.2886 75.1782 39.0762C75.0933 38.8637 75.0508 38.6088 75.0508 38.3539V35.5923H75.858V38.099C75.858 38.3114 75.9005 38.4814 75.943 38.6088C75.9855 38.7363 76.0705 38.8637 76.1554 38.9487C76.2404 39.0337 76.3679 39.1186 76.4528 39.1186C76.5803 39.1611 76.7077 39.1611 76.8352 39.1611C77.0052 39.1611 77.1751 39.1186 77.3026 39.0762C77.43 39.0337 77.5575 38.9487 77.6849 38.8212C77.8124 38.6938 77.8549 38.5663 77.9399 38.3964C77.9823 38.2264 78.0248 38.014 78.0248 37.7591V35.5923H78.8321V39.8409Z" fill="#008043"></path><path d="M82.3158 36.6545C82.2308 36.527 82.1034 36.442 81.9759 36.3571C81.8484 36.2721 81.6785 36.2296 81.4661 36.2296C81.2536 36.2296 81.1262 36.2721 80.9562 36.3571C80.8288 36.442 80.7438 36.5695 80.7438 36.697C80.7438 36.8244 80.7863 36.9094 80.8713 36.9943C80.9562 37.0793 81.0412 37.1218 81.1687 37.1643C81.2961 37.2068 81.3811 37.2493 81.5086 37.2918C81.636 37.3342 81.721 37.3342 81.8484 37.3342C82.0184 37.3767 82.1883 37.4192 82.3583 37.5042C82.5282 37.5467 82.6557 37.6316 82.7407 37.7591C82.8681 37.8441 82.9531 37.9715 82.9956 38.099C83.0381 38.2264 83.0805 38.3964 83.0805 38.6088C83.0805 38.8637 83.0381 39.0337 82.9106 39.2036C82.8256 39.3736 82.6982 39.501 82.5282 39.6285C82.3583 39.756 82.1883 39.7984 81.9759 39.8834C81.7635 39.9259 81.551 39.9684 81.3386 39.9684C80.9987 39.9684 80.6588 39.9259 80.4039 39.7984C80.149 39.671 79.8941 39.501 79.6816 39.2036L80.2765 38.6938C80.4039 38.8213 80.5739 38.9487 80.7013 39.0337C80.8713 39.1187 81.0412 39.2036 81.2961 39.2036C81.3811 39.2036 81.5085 39.2036 81.5935 39.1611C81.6785 39.1611 81.806 39.1187 81.8909 39.0762C81.9759 39.0337 82.0184 38.9912 82.1034 38.9062C82.1458 38.8213 82.1883 38.7363 82.1883 38.6513C82.1883 38.5239 82.1458 38.4389 82.0609 38.3539C81.9759 38.2689 81.8909 38.2265 81.806 38.184C81.721 38.1415 81.5935 38.099 81.4661 38.0565C81.3386 38.014 81.2536 38.014 81.1687 37.9715C80.9987 37.9291 80.8288 37.8866 80.6588 37.8441C80.4889 37.8016 80.3614 37.7166 80.234 37.6316C80.1065 37.5467 80.0215 37.4192 79.9366 37.2918C79.8516 37.1643 79.8091 36.9943 79.8091 36.7819C79.8091 36.5695 79.8516 36.3571 79.9366 36.1871C80.0215 36.0172 80.149 35.8897 80.3189 35.7622C80.4889 35.6348 80.6588 35.5923 80.8288 35.5073C81.0412 35.4648 81.2111 35.4224 81.4236 35.4224C81.721 35.4224 81.9759 35.4648 82.2308 35.5923C82.4857 35.7198 82.6982 35.8897 82.8681 36.1446L82.3158 36.6545Z" fill="#008043"></path><path d="M86.4794 36.2717H85.3323V38.1836C85.3323 38.3111 85.3323 38.4385 85.3323 38.5235C85.3323 38.651 85.3747 38.7359 85.4172 38.8209C85.4597 38.9059 85.5022 38.9909 85.5872 39.0333C85.6722 39.0758 85.7996 39.1183 85.9271 39.1183C86.012 39.1183 86.1395 39.1183 86.2245 39.0758C86.3095 39.0758 86.4369 39.0333 86.5219 38.9909V39.7131C86.4369 39.7556 86.3095 39.7981 86.1395 39.8406C85.9696 39.8831 85.8846 39.8831 85.7996 39.8831C85.5022 39.8831 85.2473 39.8406 85.0774 39.7556C84.9074 39.6706 84.7799 39.5432 84.695 39.4157C84.61 39.2883 84.5675 39.1183 84.5675 38.9484C84.5675 38.7784 84.525 38.6085 84.525 38.4385V36.2292H83.5903V35.592H84.525V34.4023H85.3323V35.592H86.4794V36.2717Z" fill="#008043"></path><path d="M87.4141 35.5923H88.2213V36.2296C88.2638 36.1021 88.3488 36.0172 88.4337 35.9322C88.5187 35.8472 88.6037 35.7622 88.7311 35.6773C88.8586 35.5923 88.9436 35.5498 89.1135 35.5073C89.241 35.4648 89.3684 35.4648 89.4959 35.4648C89.6233 35.4648 89.7508 35.4648 89.8358 35.5073L89.7933 36.3995C89.7083 36.3995 89.6658 36.357 89.5809 36.357C89.4959 36.357 89.4534 36.357 89.3684 36.357C88.9861 36.357 88.6886 36.4845 88.4762 36.6969C88.2638 36.9094 88.1788 37.2493 88.1788 37.7166V39.8409H87.4141V35.5923Z" fill="#008043"></path><path d="M90.6856 36.1021C90.898 35.8897 91.1954 35.7198 91.4928 35.6348C91.7902 35.5498 92.0876 35.4648 92.385 35.4648C92.6824 35.4648 92.9798 35.5073 93.1923 35.5923C93.4047 35.6773 93.6171 35.7622 93.7446 35.8897C93.872 36.0172 93.9995 36.1871 94.0845 36.357C94.1694 36.527 94.1694 36.6969 94.1694 36.9094V39.0762C94.1694 39.2461 94.1694 39.3736 94.1694 39.501C94.1694 39.6285 94.1694 39.7559 94.2119 39.8409H93.4897C93.4897 39.6285 93.4472 39.4161 93.4472 39.2036C93.2772 39.4585 93.0648 39.671 92.8099 39.7984C92.555 39.9259 92.3001 39.9684 91.9602 39.9684C91.7477 39.9684 91.5778 39.9259 91.4078 39.8834C91.2379 39.8409 91.0679 39.7559 90.9405 39.6285C90.813 39.501 90.6856 39.3736 90.6006 39.2461C90.5156 39.0762 90.4731 38.9062 90.4731 38.6938C90.4731 38.4389 90.5156 38.184 90.6431 38.014C90.7705 37.8441 90.9405 37.6741 91.1529 37.5467C91.3653 37.4192 91.6203 37.3342 91.9177 37.2917C92.2151 37.2493 92.5125 37.2068 92.8099 37.2068H93.4047V37.0368C93.4047 36.9094 93.3622 36.8244 93.3622 36.6969C93.3197 36.5695 93.2772 36.4845 93.1923 36.3995C93.1073 36.3146 93.0223 36.2296 92.8949 36.1871C92.7674 36.1446 92.6399 36.1021 92.4275 36.1021C92.2576 36.1021 92.1301 36.1021 92.0026 36.1446C91.8752 36.1871 91.7902 36.2296 91.7052 36.2721C91.6203 36.3146 91.5353 36.357 91.4503 36.442C91.3654 36.4845 91.2804 36.5695 91.2379 36.612L90.6856 36.1021ZM92.9798 37.8016C92.7674 37.8016 92.5975 37.8016 92.385 37.8441C92.1726 37.8865 92.0026 37.8866 91.8327 37.9715C91.6628 38.014 91.5353 38.099 91.4078 38.2264C91.3229 38.3539 91.2379 38.4814 91.2379 38.6513C91.2379 38.9062 91.3229 39.0762 91.4928 39.1611C91.6628 39.2886 91.8752 39.3311 92.1726 39.3311C92.385 39.3311 92.5975 39.2886 92.7249 39.2036C92.8949 39.1187 93.0223 39.0337 93.1073 38.9062C93.1923 38.7788 93.2772 38.6513 93.3197 38.5238C93.3622 38.3964 93.3622 38.2264 93.3622 38.099V37.8441H92.9798V37.8016Z" fill="#008043"></path><path d="M96.2091 33.043H95.4019V39.8408H96.2091V33.043Z" fill="#008043"></path><path d="M97.3135 34.0626C97.3135 33.8926 97.356 33.7652 97.4834 33.6377C97.6109 33.5103 97.7383 33.4678 97.9083 33.4678C98.0782 33.4678 98.2057 33.5103 98.3332 33.6377C98.4606 33.7652 98.5031 33.8926 98.5031 34.0626C98.5031 34.2325 98.4606 34.36 98.3332 34.4874C98.2057 34.6149 98.0782 34.6574 97.9083 34.6574C97.7383 34.6574 97.6109 34.6149 97.4834 34.4874C97.356 34.36 97.3135 34.2325 97.3135 34.0626ZM97.4834 35.5921H98.2907V39.8407H97.4834V35.5921Z" fill="#008043"></path><path d="M99.523 36.1021C99.7354 35.8897 100.033 35.7198 100.33 35.6348C100.628 35.5498 100.925 35.4648 101.222 35.4648C101.52 35.4648 101.817 35.5073 102.03 35.5923C102.242 35.6773 102.455 35.7622 102.582 35.8897C102.709 36.0172 102.837 36.1871 102.922 36.357C103.007 36.527 103.007 36.6969 103.007 36.9094V39.0762C103.007 39.2461 103.007 39.3736 103.007 39.501C103.007 39.6285 103.007 39.7559 103.049 39.8409H102.327C102.327 39.6285 102.285 39.4161 102.285 39.2036C102.115 39.4585 101.902 39.671 101.647 39.7984C101.392 39.9259 101.137 39.9684 100.798 39.9684C100.585 39.9684 100.415 39.9259 100.245 39.8834C100.075 39.8409 99.9054 39.7559 99.7779 39.6285C99.6504 39.501 99.523 39.3736 99.438 39.2461C99.353 39.0762 99.3105 38.9062 99.3105 38.6938C99.3105 38.4389 99.353 38.184 99.4805 38.014C99.6079 37.8441 99.7779 37.6741 99.9903 37.5467C100.203 37.4192 100.458 37.3342 100.755 37.2917C101.052 37.2493 101.35 37.2068 101.647 37.2068H102.242V37.0368C102.242 36.9094 102.2 36.8244 102.2 36.6969C102.157 36.5695 102.115 36.4845 102.03 36.3995C101.945 36.3146 101.86 36.2296 101.732 36.1871C101.605 36.1446 101.477 36.1021 101.265 36.1021C101.095 36.1021 100.968 36.1021 100.84 36.1446C100.713 36.1871 100.628 36.2296 100.543 36.2721C100.458 36.3146 100.373 36.357 100.288 36.442C100.203 36.4845 100.118 36.5695 100.075 36.612L99.523 36.1021ZM101.817 37.8016C101.605 37.8016 101.435 37.8016 101.222 37.8441C101.01 37.8865 100.84 37.8866 100.67 37.9715C100.5 38.014 100.373 38.099 100.245 38.2264C100.16 38.3539 100.075 38.4814 100.075 38.6513C100.075 38.9062 100.16 39.0762 100.33 39.1611C100.5 39.2886 100.713 39.3311 101.01 39.3311C101.222 39.3311 101.435 39.2886 101.562 39.2036C101.732 39.1187 101.86 39.0337 101.945 38.9062C102.03 38.7788 102.115 38.6513 102.157 38.5238C102.2 38.3964 102.2 38.2264 102.2 38.099V37.8441H101.817V37.8016Z" fill="#008043"></path><path d="M104.196 35.5923H105.004V36.2296C105.088 36.0172 105.301 35.8047 105.513 35.6773C105.768 35.5498 106.066 35.4648 106.406 35.4648C106.618 35.4648 106.788 35.5073 107 35.5498C107.17 35.5923 107.34 35.7198 107.51 35.8472C107.638 35.9747 107.765 36.1446 107.85 36.357C107.935 36.5695 107.978 36.8244 107.978 37.0793V39.7984H107.17V37.2917C107.17 37.0793 107.128 36.9094 107.085 36.7819C107.043 36.6544 106.958 36.527 106.873 36.442C106.788 36.357 106.66 36.2721 106.576 36.2721C106.448 36.2296 106.321 36.2296 106.193 36.2296C106.023 36.2296 105.853 36.2721 105.726 36.3146C105.598 36.3571 105.471 36.442 105.343 36.5695C105.216 36.6969 105.131 36.8244 105.089 36.9943C105.046 37.1643 105.004 37.3767 105.004 37.6316V39.8409H104.196V35.5923Z" fill="#008043"></path><path d="M112.099 38.5241C112.269 38.7791 112.439 38.949 112.694 39.034C112.948 39.1614 113.203 39.2039 113.458 39.2039C113.586 39.2039 113.756 39.1614 113.883 39.119C114.011 39.0765 114.181 38.9915 114.308 38.9065C114.435 38.8215 114.52 38.6941 114.605 38.5666C114.69 38.4392 114.733 38.2692 114.733 38.0993C114.733 37.8444 114.648 37.6744 114.52 37.547C114.35 37.4195 114.181 37.292 113.926 37.2071C113.713 37.1221 113.458 37.0371 113.161 36.9522C112.906 36.8672 112.651 36.7397 112.396 36.6123C112.184 36.4848 111.971 36.2724 111.801 36.0175C111.631 35.7625 111.546 35.4651 111.546 35.0403C111.546 34.8703 111.589 34.6579 111.674 34.4455C111.759 34.233 111.886 34.0631 112.056 33.8507C112.226 33.6807 112.439 33.5108 112.736 33.4258C112.991 33.2983 113.331 33.2559 113.713 33.2559C114.053 33.2559 114.393 33.2983 114.69 33.3833C114.988 33.4683 115.285 33.6807 115.54 33.9781L114.86 34.6154C114.733 34.4455 114.605 34.318 114.393 34.1906C114.181 34.1056 113.968 34.0206 113.713 34.0206C113.458 34.0206 113.288 34.0631 113.118 34.1056C112.948 34.1481 112.821 34.233 112.736 34.3605C112.651 34.4455 112.566 34.5729 112.524 34.7004C112.481 34.8278 112.481 34.9128 112.481 34.9978C112.481 35.2527 112.566 35.4651 112.736 35.6351C112.906 35.7625 113.076 35.89 113.331 35.975C113.543 36.0599 113.798 36.1449 114.096 36.2299C114.35 36.3149 114.605 36.3998 114.86 36.5273C115.073 36.6548 115.285 36.8247 115.455 37.0371C115.625 37.2496 115.668 37.547 115.668 37.9293C115.668 38.2267 115.625 38.5241 115.498 38.7366C115.37 38.9915 115.243 39.2039 115.03 39.3739C114.818 39.5438 114.605 39.6713 114.35 39.7562C114.096 39.8412 113.798 39.8837 113.501 39.8837C113.076 39.8837 112.694 39.7987 112.354 39.6713C112.014 39.5438 111.716 39.2889 111.504 38.9915L112.099 38.5241Z" fill="#008043"></path><path d="M117.282 38.014C117.282 38.184 117.325 38.3539 117.41 38.5238C117.495 38.6938 117.58 38.8212 117.707 38.9062C117.835 39.0337 118.005 39.1187 118.175 39.1611C118.345 39.2036 118.514 39.2461 118.727 39.2461C118.982 39.2461 119.194 39.2036 119.364 39.0762C119.534 38.9487 119.704 38.8213 119.874 38.6088L120.469 39.0762C120.001 39.671 119.407 39.9684 118.599 39.9684C118.26 39.9684 117.962 39.9259 117.707 39.7984C117.452 39.671 117.197 39.5435 117.027 39.3311C116.857 39.1186 116.688 38.9062 116.603 38.6088C116.518 38.3539 116.433 38.0565 116.433 37.7166C116.433 37.4192 116.475 37.1218 116.603 36.8244C116.73 36.5695 116.857 36.3146 117.07 36.1021C117.282 35.8897 117.495 35.7622 117.75 35.6348C118.005 35.5073 118.302 35.4648 118.642 35.4648C119.024 35.4648 119.322 35.5498 119.619 35.6773C119.874 35.8047 120.086 35.9747 120.256 36.1871C120.426 36.3995 120.554 36.6545 120.639 36.9094C120.724 37.1643 120.766 37.4617 120.766 37.7166V38.014H117.282ZM119.832 37.3767C119.832 37.2068 119.789 37.0368 119.747 36.8669C119.704 36.6969 119.619 36.5695 119.534 36.4845C119.449 36.3571 119.322 36.2721 119.152 36.2296C118.982 36.1871 118.812 36.1446 118.599 36.1446C118.387 36.1446 118.217 36.1871 118.047 36.2721C117.877 36.3571 117.75 36.442 117.622 36.5695C117.495 36.6969 117.41 36.8244 117.367 36.9519C117.325 37.0793 117.282 37.2493 117.282 37.3767H119.832Z" fill="#008043"></path><path d="M124.717 36.6969C124.547 36.527 124.42 36.442 124.25 36.357C124.08 36.2721 123.91 36.2296 123.655 36.2296C123.443 36.2296 123.23 36.2721 123.06 36.357C122.89 36.442 122.763 36.5695 122.635 36.6969C122.508 36.8244 122.423 36.9944 122.38 37.1643C122.338 37.3342 122.296 37.5467 122.296 37.7166C122.296 37.929 122.338 38.099 122.38 38.2689C122.465 38.4389 122.55 38.6088 122.678 38.7363C122.805 38.8637 122.933 38.9912 123.103 39.0337C123.273 39.1187 123.443 39.1611 123.655 39.1611C123.868 39.1611 124.08 39.1187 124.25 39.0337C124.42 38.9487 124.547 38.8213 124.717 38.6938L125.312 39.2886C125.1 39.5435 124.845 39.671 124.59 39.7984C124.292 39.8834 124.037 39.9684 123.698 39.9684C123.358 39.9684 123.06 39.9259 122.805 39.7984C122.55 39.671 122.296 39.5435 122.083 39.3311C121.871 39.1187 121.743 38.9062 121.616 38.6513C121.488 38.3964 121.446 38.099 121.446 37.7591C121.446 37.4192 121.488 37.1218 121.616 36.8669C121.743 36.612 121.871 36.357 122.083 36.1446C122.296 35.9322 122.508 35.8047 122.763 35.6773C123.018 35.5498 123.358 35.5073 123.655 35.5073C123.952 35.5073 124.25 35.5498 124.547 35.6773C124.845 35.8047 125.1 35.9747 125.27 36.1871L124.717 36.6969Z" fill="#008043"></path><path d="M129.858 39.8409H129.051V39.2036C128.966 39.416 128.753 39.6285 128.541 39.7559C128.286 39.8834 127.989 39.9684 127.691 39.9684C127.479 39.9684 127.266 39.9259 127.096 39.8834C126.926 39.8409 126.756 39.7134 126.587 39.586C126.459 39.4585 126.332 39.2886 126.247 39.0762C126.162 38.8637 126.119 38.6088 126.119 38.3539V35.5923H126.926V38.099C126.926 38.3114 126.969 38.4814 127.011 38.6088C127.054 38.7363 127.139 38.8637 127.224 38.9487C127.309 39.0337 127.436 39.1186 127.521 39.1186C127.649 39.1611 127.776 39.1611 127.904 39.1611C128.074 39.1611 128.243 39.1186 128.371 39.0762C128.498 39.0337 128.626 38.9487 128.753 38.8212C128.881 38.6938 128.966 38.5663 129.008 38.3964C129.051 38.2264 129.093 38.014 129.093 37.7591V35.5923H129.9V39.8409H129.858Z" fill="#008043"></path><path d="M131.09 35.5923H131.897V36.2296C131.94 36.1021 132.025 36.0172 132.11 35.9322C132.194 35.8472 132.279 35.7622 132.407 35.6773C132.534 35.5923 132.619 35.5498 132.789 35.5073C132.917 35.4648 133.044 35.4648 133.172 35.4648C133.299 35.4648 133.427 35.4648 133.512 35.5073L133.469 36.3995C133.384 36.3995 133.342 36.357 133.257 36.357C133.172 36.357 133.129 36.357 133.044 36.357C132.662 36.357 132.364 36.4845 132.152 36.6969C131.94 36.9094 131.855 37.2493 131.855 37.7166V39.8409H131.047V35.5923H131.09Z" fill="#008043"></path><path d="M134.191 34.0626C134.191 33.8926 134.234 33.7652 134.361 33.6377C134.489 33.5103 134.616 33.4678 134.786 33.4678C134.956 33.4678 135.084 33.5103 135.211 33.6377C135.339 33.7652 135.381 33.8926 135.381 34.0626C135.381 34.2325 135.339 34.36 135.211 34.4874C135.084 34.6149 134.956 34.6574 134.786 34.6574C134.616 34.6574 134.489 34.6149 134.361 34.4874C134.234 34.36 134.191 34.2325 134.191 34.0626ZM134.361 35.5921H135.169V39.8407H134.361V35.5921Z" fill="#008043"></path><path d="M138.823 36.2717H137.676V38.1836C137.676 38.3111 137.676 38.4385 137.676 38.5235C137.676 38.651 137.718 38.7359 137.76 38.8209C137.803 38.9059 137.845 38.9909 137.93 39.0333C138.015 39.0758 138.143 39.1183 138.27 39.1183C138.355 39.1183 138.483 39.1183 138.568 39.0758C138.653 39.0758 138.78 39.0333 138.865 38.9909V39.7131C138.78 39.7556 138.653 39.7981 138.483 39.8406C138.313 39.8831 138.228 39.8831 138.143 39.8831C137.845 39.8831 137.591 39.8406 137.421 39.7556C137.251 39.6706 137.123 39.5432 137.038 39.4157C136.953 39.2883 136.911 39.1183 136.911 38.9484C136.911 38.7784 136.868 38.6085 136.868 38.4385V36.2292H135.934V35.592H136.868V34.4023H137.676V35.592H138.823V36.2717Z" fill="#008043"></path><path d="M139.587 34.0626C139.587 33.8926 139.63 33.7652 139.757 33.6377C139.885 33.5103 140.012 33.4678 140.182 33.4678C140.352 33.4678 140.48 33.5103 140.607 33.6377C140.735 33.7652 140.777 33.8926 140.777 34.0626C140.777 34.2325 140.735 34.36 140.607 34.4874C140.48 34.6149 140.352 34.6574 140.182 34.6574C140.012 34.6574 139.885 34.6149 139.757 34.4874C139.63 34.36 139.587 34.2325 139.587 34.0626ZM139.757 35.5921H140.565V39.8407H139.757V35.5921Z" fill="#008043"></path><path d="M142.434 38.014C142.434 38.184 142.476 38.3539 142.561 38.5238C142.646 38.6938 142.731 38.8212 142.901 38.9062C143.029 39.0337 143.198 39.1187 143.368 39.1611C143.538 39.2036 143.708 39.2461 143.921 39.2461C144.176 39.2461 144.388 39.2036 144.558 39.0762C144.728 38.9487 144.898 38.8213 145.068 38.6088L145.663 39.0762C145.195 39.671 144.601 39.9684 143.793 39.9684C143.453 39.9684 143.156 39.9259 142.901 39.7984C142.646 39.671 142.391 39.5435 142.221 39.3311C142.051 39.1186 141.881 38.9062 141.796 38.6088C141.711 38.3539 141.626 38.0565 141.626 37.7166C141.626 37.4192 141.669 37.1218 141.796 36.8244C141.924 36.5695 142.051 36.3146 142.264 36.1021C142.476 35.8897 142.689 35.7622 142.944 35.6348C143.198 35.5073 143.496 35.4648 143.836 35.4648C144.218 35.4648 144.516 35.5498 144.813 35.6773C145.11 35.8047 145.28 35.9747 145.45 36.1871C145.62 36.3995 145.748 36.6545 145.833 36.9094C145.918 37.1643 145.96 37.4617 145.96 37.7166V38.014H142.434ZM144.983 37.3767C144.983 37.2068 144.94 37.0368 144.898 36.8669C144.855 36.6969 144.77 36.5695 144.685 36.4845C144.601 36.3571 144.473 36.2721 144.303 36.2296C144.133 36.1871 143.963 36.1446 143.751 36.1446C143.538 36.1446 143.368 36.1871 143.198 36.2721C143.029 36.3571 142.901 36.442 142.774 36.5695C142.646 36.6969 142.561 36.8244 142.519 36.9519C142.476 37.0793 142.434 37.2493 142.434 37.3767H144.983Z" fill="#008043"></path><path d="M149.104 36.6545C149.019 36.527 148.892 36.442 148.764 36.3571C148.637 36.2721 148.467 36.2296 148.255 36.2296C148.042 36.2296 147.915 36.2721 147.745 36.3571C147.617 36.442 147.532 36.5695 147.532 36.697C147.532 36.8244 147.575 36.9094 147.66 36.9943C147.745 37.0793 147.83 37.1218 147.957 37.1643C148.085 37.2068 148.17 37.2493 148.297 37.2918C148.425 37.3342 148.552 37.3342 148.637 37.3342C148.807 37.3767 148.977 37.4192 149.147 37.5042C149.317 37.5467 149.444 37.6316 149.529 37.7591C149.657 37.8441 149.742 37.9715 149.784 38.099C149.827 38.2264 149.869 38.3964 149.869 38.6088C149.869 38.8637 149.827 39.0337 149.699 39.2036C149.614 39.3736 149.487 39.501 149.317 39.6285C149.147 39.756 148.977 39.7984 148.764 39.8834C148.552 39.9259 148.34 39.9684 148.127 39.9684C147.787 39.9684 147.447 39.9259 147.192 39.7984C146.938 39.671 146.683 39.501 146.47 39.2036L147.065 38.6938C147.192 38.8213 147.362 38.9487 147.49 39.0337C147.66 39.1187 147.83 39.2036 148.085 39.2036C148.17 39.2036 148.297 39.2036 148.382 39.1611C148.467 39.1611 148.595 39.1187 148.68 39.0762C148.764 39.0337 148.807 38.9912 148.892 38.9062C148.934 38.8213 148.977 38.7363 148.977 38.6513C148.977 38.5239 148.934 38.4389 148.849 38.3539C148.764 38.2689 148.679 38.2265 148.595 38.184C148.51 38.1415 148.382 38.099 148.255 38.0565C148.127 38.014 148.042 38.014 147.957 37.9715C147.787 37.9291 147.617 37.8866 147.447 37.8441C147.277 37.8016 147.15 37.7166 147.023 37.6316C146.895 37.5467 146.81 37.4192 146.725 37.2918C146.64 37.1643 146.598 36.9943 146.598 36.7819C146.598 36.5695 146.64 36.3571 146.725 36.1871C146.81 36.0172 146.938 35.8897 147.108 35.7622C147.277 35.6348 147.447 35.5923 147.617 35.5073C147.83 35.4648 148 35.4224 148.212 35.4224C148.51 35.4224 148.764 35.4648 149.019 35.5923C149.274 35.7198 149.487 35.8897 149.657 36.1446L149.104 36.6545Z" fill="#008043"></path><path d="M159.088 39.8407H157.941L157.176 38.991C156.921 39.3309 156.624 39.5433 156.327 39.7557C156.029 39.9257 155.647 40.0107 155.222 40.0107C154.882 40.0107 154.542 39.9682 154.287 39.8407C154.032 39.7557 153.82 39.5858 153.65 39.4159C153.48 39.2459 153.353 39.0335 153.268 38.8211C153.183 38.6086 153.14 38.3962 153.14 38.1413C153.14 37.9288 153.183 37.7164 153.268 37.5465C153.353 37.3765 153.438 37.2066 153.565 37.0366C153.692 36.8667 153.862 36.7392 154.032 36.6118C154.202 36.4843 154.372 36.3993 154.585 36.3144C154.372 36.1019 154.202 35.8895 154.075 35.6346C153.947 35.4222 153.862 35.1248 153.862 34.8273C153.862 34.5724 153.905 34.36 153.99 34.1901C154.075 34.0201 154.202 33.8502 154.372 33.7227C154.542 33.5952 154.712 33.5103 154.925 33.4253C155.137 33.3403 155.349 33.3403 155.562 33.3403C155.774 33.3403 155.987 33.3828 156.199 33.4253C156.412 33.4678 156.582 33.5952 156.709 33.6802C156.879 33.8077 156.964 33.9351 157.049 34.1476C157.134 34.3175 157.176 34.5299 157.176 34.7849C157.176 34.9973 157.134 35.1672 157.049 35.3372C156.964 35.5071 156.879 35.6346 156.751 35.8045C156.624 35.932 156.497 36.0594 156.327 36.1444C156.157 36.2294 156.029 36.3568 155.859 36.4418L157.134 37.7589L157.941 36.4418H158.918L157.686 38.3537L159.088 39.8407ZM155.094 36.8242C154.967 36.9092 154.84 36.9941 154.712 37.0791C154.585 37.1641 154.457 37.2491 154.372 37.3765C154.287 37.4615 154.202 37.5889 154.117 37.7164C154.075 37.8439 154.032 37.9713 154.032 38.1413C154.032 38.3112 154.075 38.4387 154.117 38.5661C154.202 38.6936 154.287 38.821 154.372 38.906C154.5 38.991 154.627 39.076 154.755 39.1609C154.882 39.2034 155.052 39.2459 155.179 39.2459C155.349 39.2459 155.477 39.2034 155.604 39.1609C155.732 39.1185 155.859 39.0335 155.987 38.991C156.114 38.906 156.199 38.821 156.327 38.7361C156.412 38.6511 156.497 38.5237 156.582 38.4387L155.094 36.8242ZM156.284 34.8273C156.284 34.6149 156.199 34.445 156.072 34.3175C155.944 34.1901 155.732 34.1476 155.519 34.1476C155.307 34.1476 155.095 34.1901 154.925 34.36C154.755 34.4875 154.67 34.6574 154.67 34.9123C154.67 35.0398 154.67 35.1248 154.712 35.2097C154.755 35.2947 154.797 35.3797 154.882 35.5071C154.925 35.5921 155.01 35.6771 155.094 35.762C155.179 35.847 155.222 35.932 155.307 35.9745C155.434 35.932 155.519 35.847 155.647 35.762C155.774 35.6771 155.859 35.5921 155.987 35.5071C156.114 35.4221 156.157 35.3372 156.242 35.2097C156.284 35.0823 156.284 34.9548 156.284 34.8273Z" fill="#008043"></path><path d="M69.8673 43.2822H69.0176V49.6552H69.8673V43.2822Z" fill="#008043"></path><path d="M71.2695 45.3643H72.0768V46.0016C72.1617 45.7891 72.3742 45.5767 72.5866 45.4492C72.8415 45.3218 73.1389 45.2368 73.4363 45.2368C73.6488 45.2368 73.8187 45.2793 74.0311 45.3218C74.2011 45.3643 74.371 45.4917 74.541 45.6192C74.6684 45.7466 74.7959 45.9166 74.8809 46.129C74.9658 46.3414 75.0083 46.5964 75.0083 46.8513V49.5704H74.2436V47.0637C74.2436 46.8513 74.2011 46.6813 74.1586 46.5539C74.1161 46.4264 74.0311 46.299 73.9462 46.214C73.8612 46.129 73.7337 46.0441 73.6488 46.0441C73.5213 46.0016 73.3938 46.0016 73.2664 46.0016C73.0964 46.0016 72.9265 46.0441 72.799 46.0865C72.6716 46.129 72.5441 46.214 72.4167 46.3414C72.2892 46.4689 72.2042 46.5964 72.1617 46.7663C72.1193 46.9363 72.0768 47.1487 72.0768 47.4036V49.6129H71.2695V45.3643Z" fill="#008043"></path><path d="M75.603 45.3643H76.5377L77.8123 48.6357L79.0019 45.3643H79.8941L78.1947 49.6129H77.345L75.603 45.3643Z" fill="#008043"></path><path d="M81.0836 47.7855C81.0836 47.9555 81.1261 48.1254 81.2111 48.2953C81.296 48.4653 81.381 48.5927 81.5085 48.6777C81.6359 48.8052 81.8059 48.8901 81.9758 48.9326C82.1458 48.9751 82.3157 49.0176 82.5281 49.0176C82.7831 49.0176 82.9955 48.9751 83.1654 48.8477C83.3354 48.7202 83.5053 48.5927 83.6753 48.3803L84.2701 48.8477C83.8027 49.4425 83.2079 49.6974 82.4007 49.6974C82.0608 49.6974 81.7634 49.6549 81.5085 49.5274C81.2536 49.4 80.9986 49.2725 80.8287 49.0601C80.6587 48.8477 80.4888 48.6352 80.4038 48.3378C80.3189 48.0829 80.2339 47.7855 80.2339 47.4456C80.2339 47.1482 80.2764 46.8508 80.4038 46.5534C80.5313 46.2985 80.6587 46.0436 80.8712 45.8311C81.0836 45.6187 81.296 45.4912 81.551 45.3638C81.8059 45.2363 82.1033 45.1938 82.4432 45.1938C82.8255 45.1938 83.123 45.2788 83.4204 45.4063C83.6753 45.5337 83.8877 45.7037 84.0576 45.9161C84.2276 46.1285 84.355 46.3835 84.44 46.6384C84.525 46.8933 84.5675 47.1907 84.5675 47.4456V47.743H81.0836V47.7855ZM83.6328 47.1482C83.6328 46.9783 83.5903 46.8083 83.5478 46.6384C83.5053 46.4684 83.4203 46.341 83.3354 46.256C83.2504 46.1285 83.1229 46.0436 82.953 46.0011C82.7831 45.9586 82.6131 45.9161 82.4007 45.9161C82.1883 45.9161 82.0183 45.9586 81.8484 46.0436C81.6784 46.1285 81.551 46.2135 81.4235 46.341C81.296 46.4684 81.2111 46.5959 81.1686 46.7234C81.1261 46.8508 81.0836 47.0208 81.0836 47.1482H83.6328Z" fill="#008043"></path><path d="M87.7118 46.4259C87.6268 46.2985 87.4993 46.2135 87.3719 46.1285C87.2444 46.0436 87.0745 46.0011 86.8621 46.0011C86.6921 46.0011 86.5222 46.0436 86.3522 46.1285C86.2248 46.2135 86.1398 46.341 86.1398 46.4684C86.1398 46.5959 86.1823 46.6809 86.2672 46.7658C86.3522 46.8508 86.4372 46.8933 86.5647 46.9358C86.6921 46.9783 86.7771 47.0208 86.9045 47.0632C87.032 47.1057 87.1595 47.1057 87.2444 47.1057C87.4144 47.1482 87.5843 47.1907 87.7543 47.2757C87.9242 47.3182 88.0517 47.4031 88.1367 47.5306C88.2641 47.6156 88.3491 47.743 88.3916 47.8705C88.434 47.9979 88.4765 48.1679 88.4765 48.3803C88.4765 48.6352 88.4341 48.8052 88.3066 48.9751C88.2216 49.1451 88.0942 49.2725 87.9242 49.4C87.7543 49.5274 87.5843 49.5699 87.3719 49.6549C87.1595 49.6974 86.947 49.7399 86.7346 49.7399C86.3947 49.7399 86.0548 49.6974 85.7999 49.5699C85.545 49.4425 85.2901 49.2725 85.0776 48.9751L85.6724 48.4653C85.7999 48.5927 85.9698 48.7202 86.0973 48.8052C86.2672 48.8901 86.4372 48.9751 86.6921 48.9751C86.7771 48.9751 86.9045 48.9751 86.9895 48.9326C87.0745 48.8901 87.202 48.8902 87.2869 48.8477C87.3719 48.8052 87.4144 48.7627 87.4994 48.6777C87.5418 48.5927 87.5843 48.5503 87.5843 48.4228C87.5843 48.2953 87.5418 48.2104 87.4569 48.1254C87.3719 48.0404 87.2869 47.9979 87.2019 47.9555C87.117 47.913 86.9895 47.8705 86.8621 47.828C86.7346 47.7855 86.6496 47.7855 86.5647 47.743C86.3947 47.7005 86.2248 47.658 86.0548 47.6156C85.8849 47.5731 85.7574 47.4881 85.63 47.4031C85.5025 47.3182 85.4175 47.1907 85.3326 47.0632C85.2476 46.9358 85.2051 46.7658 85.2051 46.5534C85.2051 46.341 85.2476 46.1285 85.3326 45.9586C85.4175 45.7886 85.545 45.6612 85.7149 45.5337C85.8849 45.4063 86.0548 45.3638 86.2248 45.2788C86.4372 45.2363 86.6071 45.1938 86.8196 45.1938C87.117 45.1938 87.3719 45.2363 87.6268 45.3638C87.8817 45.4912 88.0942 45.6612 88.2641 45.9161L87.7118 46.4259Z" fill="#008043"></path><path d="M91.8754 46.0437H90.7283V47.9556C90.7283 48.083 90.7283 48.2105 90.7283 48.2955C90.7283 48.4229 90.7707 48.5079 90.8132 48.5929C90.8557 48.6779 90.8982 48.7628 90.9832 48.8053C91.0681 48.8478 91.1956 48.8903 91.3231 48.8903C91.408 48.8903 91.5355 48.8903 91.6205 48.8478C91.7054 48.8478 91.8329 48.8053 91.9179 48.7628V49.4851C91.8329 49.5276 91.7054 49.5701 91.5355 49.6125C91.3656 49.655 91.2806 49.655 91.1956 49.655C90.8982 49.655 90.6433 49.6125 90.4733 49.5276C90.3034 49.4426 90.1759 49.3151 90.091 49.1877C90.006 49.0602 89.9635 48.8903 89.9635 48.7203C89.9635 48.5504 89.921 48.3805 89.921 48.2105V46.0012H88.9863V45.3639H89.921V44.1743H90.7283V45.3639H91.8754V46.0437Z" fill="#008043"></path><path d="M92.8101 45.3638H93.5748V46.0436C93.5748 46.0011 93.6173 45.9161 93.7023 45.8311C93.7872 45.7462 93.8722 45.6612 93.9997 45.5762C94.1271 45.4912 94.2546 45.4488 94.4245 45.3638C94.5945 45.3213 94.7644 45.2788 94.9344 45.2788C95.2318 45.2788 95.5292 45.3638 95.7416 45.4912C95.954 45.6187 96.124 45.8311 96.2514 46.0861C96.3789 45.8311 96.5913 45.6187 96.8463 45.4912C97.1012 45.3638 97.3561 45.2788 97.611 45.2788C97.9509 45.2788 98.2058 45.3213 98.4182 45.4488C98.6307 45.5762 98.8006 45.7037 98.9281 45.8736C99.0555 46.0436 99.1405 46.256 99.183 46.4684C99.2255 46.6809 99.268 46.9358 99.268 47.1482V49.6124H98.4607V47.2332C98.4607 47.0632 98.4607 46.9358 98.4182 46.7658C98.3757 46.5959 98.3333 46.4684 98.2908 46.3835C98.2058 46.256 98.1208 46.171 97.9934 46.1285C97.8659 46.0436 97.696 46.0436 97.526 46.0436C97.1436 46.0436 96.8462 46.171 96.6763 46.3835C96.5064 46.6384 96.4214 46.9358 96.4214 47.3182V49.6549H95.6141V47.4456C95.6141 47.2332 95.6141 47.0632 95.5717 46.8933C95.5292 46.7233 95.5292 46.5959 95.4442 46.4684C95.4017 46.341 95.2742 46.256 95.1893 46.171C95.0618 46.086 94.9344 46.0861 94.7219 46.0861C94.5945 46.0861 94.4245 46.1285 94.2971 46.171C94.1696 46.2135 94.0422 46.2985 93.9572 46.4259C93.8722 46.5534 93.7872 46.6809 93.7023 46.8508C93.6598 47.0207 93.6173 47.2332 93.6173 47.4881V49.6974H92.8101V45.3638Z" fill="#008043"></path><path d="M101.052 47.7855C101.052 47.9555 101.095 48.1254 101.18 48.2953C101.265 48.4653 101.35 48.5927 101.52 48.6777C101.647 48.8052 101.817 48.8901 101.987 48.9326C102.157 48.9751 102.327 49.0176 102.539 49.0176C102.794 49.0176 103.007 48.9751 103.177 48.8477C103.347 48.7202 103.517 48.5927 103.686 48.3803L104.281 48.8477C103.814 49.4425 103.219 49.6974 102.412 49.6974C102.072 49.6974 101.775 49.6549 101.52 49.5274C101.265 49.4 101.01 49.2725 100.84 49.0601C100.67 48.8477 100.5 48.6352 100.415 48.3378C100.33 48.0829 100.245 47.7855 100.245 47.4456C100.245 47.1482 100.288 46.8508 100.415 46.5534C100.543 46.2985 100.67 46.0436 100.882 45.8311C101.095 45.6187 101.307 45.4912 101.562 45.3638C101.817 45.2363 102.115 45.1938 102.454 45.1938C102.837 45.1938 103.134 45.2788 103.432 45.4063C103.687 45.5337 103.899 45.7037 104.069 45.9161C104.239 46.1285 104.366 46.3835 104.451 46.6384C104.536 46.8933 104.579 47.1907 104.579 47.4456V47.743H101.052V47.7855ZM103.602 47.1482C103.602 46.9783 103.559 46.8083 103.517 46.6384C103.474 46.4684 103.389 46.341 103.304 46.256C103.219 46.1285 103.092 46.0436 102.922 46.0011C102.752 45.9586 102.582 45.9161 102.369 45.9161C102.157 45.9161 101.987 45.9586 101.817 46.0436C101.647 46.1285 101.52 46.2135 101.392 46.341C101.265 46.4684 101.18 46.5959 101.137 46.7234C101.095 46.8508 101.052 47.0208 101.052 47.1482H103.602Z" fill="#008043"></path><path d="M105.471 45.3643H106.278V46.0016C106.363 45.7891 106.575 45.5767 106.788 45.4492C107.043 45.3218 107.34 45.2368 107.68 45.2368C107.892 45.2368 108.062 45.2793 108.275 45.3218C108.445 45.3643 108.615 45.4917 108.785 45.6192C108.912 45.7466 109.04 45.9166 109.125 46.129C109.209 46.3414 109.252 46.5964 109.252 46.8513V49.5704H108.445V47.0637C108.445 46.8513 108.402 46.6813 108.36 46.5539C108.317 46.4264 108.232 46.299 108.147 46.214C108.062 46.129 107.935 46.0441 107.85 46.0441C107.722 46.0016 107.595 46.0016 107.468 46.0016C107.298 46.0016 107.128 46.0441 107 46.0865C106.873 46.129 106.745 46.214 106.618 46.3414C106.49 46.4689 106.405 46.5964 106.363 46.7663C106.32 46.9363 106.278 47.1487 106.278 47.4036V49.6129H105.471V45.3643Z" fill="#008043"></path><path d="M112.778 46.0437H111.631V47.9556C111.631 48.083 111.631 48.2105 111.631 48.2955C111.631 48.4229 111.674 48.5079 111.716 48.5929C111.759 48.6779 111.801 48.7628 111.886 48.8053C111.971 48.8478 112.098 48.8903 112.226 48.8903C112.311 48.8903 112.438 48.8903 112.523 48.8478C112.608 48.8478 112.736 48.8053 112.821 48.7628V49.4851C112.736 49.5276 112.608 49.5701 112.438 49.6125C112.268 49.655 112.183 49.655 112.098 49.655C111.801 49.655 111.546 49.6125 111.376 49.5276C111.206 49.4426 111.079 49.3151 110.994 49.1877C110.909 49.0602 110.866 48.8903 110.866 48.7203C110.866 48.5504 110.824 48.3805 110.824 48.2105V46.0012H109.889V45.3639H110.824V44.1743H111.631V45.3639H112.778V46.0437Z" fill="#008043"></path><path d="M116.135 46.4259C116.05 46.2985 115.923 46.2135 115.795 46.1285C115.668 46.0436 115.498 46.0011 115.285 46.0011C115.073 46.0011 114.946 46.0436 114.776 46.1285C114.648 46.2135 114.563 46.341 114.563 46.4684C114.563 46.5959 114.606 46.6809 114.691 46.7658C114.776 46.8508 114.861 46.8933 114.988 46.9358C115.115 46.9783 115.2 47.0208 115.328 47.0632C115.455 47.1057 115.54 47.1057 115.668 47.1057C115.838 47.1482 116.008 47.1907 116.178 47.2757C116.348 47.3182 116.475 47.4031 116.56 47.5306C116.687 47.6156 116.772 47.743 116.815 47.8705C116.857 47.9979 116.9 48.1679 116.9 48.3803C116.9 48.6352 116.857 48.8052 116.73 48.9751C116.645 49.1451 116.518 49.2725 116.348 49.4C116.178 49.5274 116.008 49.5699 115.795 49.6549C115.583 49.6974 115.37 49.7399 115.158 49.7399C114.818 49.7399 114.478 49.6974 114.223 49.5699C113.968 49.4425 113.713 49.2725 113.501 48.9751L114.096 48.4653C114.223 48.5927 114.393 48.7202 114.521 48.8052C114.691 48.8901 114.861 48.9751 115.115 48.9751C115.2 48.9751 115.328 48.9751 115.413 48.9326C115.498 48.8901 115.625 48.8902 115.71 48.8477C115.795 48.8052 115.838 48.7627 115.923 48.6777C115.965 48.5927 116.008 48.5503 116.008 48.4228C116.008 48.2953 115.965 48.2104 115.88 48.1254C115.795 48.0404 115.71 47.9979 115.625 47.9555C115.54 47.913 115.413 47.8705 115.285 47.828C115.158 47.7855 115.073 47.7855 114.988 47.743C114.818 47.7005 114.648 47.658 114.478 47.6156C114.308 47.5731 114.181 47.4881 114.053 47.4031C113.926 47.3182 113.841 47.1907 113.756 47.0632C113.671 46.9358 113.628 46.7658 113.628 46.5534C113.628 46.341 113.671 46.1285 113.756 45.9586C113.841 45.7886 113.968 45.6612 114.138 45.5337C114.308 45.4063 114.478 45.3638 114.648 45.2788C114.861 45.2363 115.03 45.1938 115.243 45.1938C115.54 45.1938 115.795 45.2363 116.05 45.3638C116.305 45.4912 116.517 45.6612 116.687 45.9161L116.135 46.4259Z" fill="#008043"></path><path d="M125.014 44.6418C124.844 44.4294 124.589 44.2169 124.335 44.0895C124.08 43.962 123.782 43.9195 123.485 43.9195C123.145 43.9195 122.805 44.0045 122.508 44.132C122.21 44.2594 121.955 44.4719 121.743 44.6843C121.53 44.8967 121.361 45.1941 121.276 45.4915C121.148 45.7889 121.106 46.1288 121.106 46.5112C121.106 46.8511 121.148 47.1485 121.276 47.4459C121.403 47.7433 121.53 47.9982 121.743 48.2531C121.955 48.4656 122.21 48.678 122.508 48.8055C122.805 48.9329 123.145 49.0179 123.485 49.0179C123.867 49.0179 124.165 48.9329 124.462 48.8055C124.717 48.6355 124.972 48.4656 125.142 48.1682L125.864 48.7205C125.822 48.8055 125.737 48.8904 125.609 49.0179C125.482 49.1454 125.312 49.2728 125.142 49.4003C124.929 49.5277 124.717 49.6127 124.42 49.7402C124.122 49.8251 123.825 49.8676 123.442 49.8676C122.932 49.8676 122.508 49.7826 122.083 49.5702C121.658 49.4003 121.318 49.1454 121.063 48.8055C120.766 48.5081 120.553 48.1257 120.426 47.7433C120.298 47.3609 120.213 46.9361 120.213 46.5537C120.213 46.0438 120.298 45.619 120.468 45.1941C120.638 44.7693 120.851 44.4294 121.148 44.132C121.445 43.8346 121.785 43.5797 122.21 43.4097C122.635 43.2398 123.06 43.1548 123.57 43.1548C123.995 43.1548 124.42 43.2398 124.802 43.4097C125.227 43.5797 125.524 43.8346 125.779 44.1745L125.014 44.6418Z" fill="#008043"></path><path d="M126.417 47.4881C126.417 47.1907 126.459 46.8933 126.586 46.6384C126.714 46.3835 126.884 46.1285 127.054 45.9161C127.266 45.7037 127.479 45.5337 127.776 45.4488C128.031 45.3213 128.328 45.2788 128.668 45.2788C128.966 45.2788 129.263 45.3213 129.56 45.4488C129.815 45.5762 130.07 45.7462 130.283 45.9161C130.495 46.1285 130.665 46.341 130.75 46.6384C130.878 46.8933 130.92 47.1907 130.92 47.4881C130.92 47.7855 130.878 48.0829 130.75 48.3803C130.623 48.6777 130.453 48.8901 130.283 49.1026C130.07 49.315 129.858 49.4425 129.56 49.5699C129.306 49.6974 129.008 49.7399 128.668 49.7399C128.371 49.7399 128.073 49.6974 127.776 49.5699C127.521 49.4425 127.266 49.315 127.054 49.1026C126.841 48.8901 126.671 48.6777 126.586 48.3803C126.501 48.0829 126.417 47.7855 126.417 47.4881ZM127.309 47.4881C127.309 47.7005 127.351 47.913 127.394 48.0829C127.479 48.2528 127.564 48.4228 127.691 48.5503C127.819 48.6777 127.946 48.7627 128.116 48.8477C128.286 48.9326 128.498 48.9751 128.711 48.9751C128.923 48.9751 129.136 48.9326 129.306 48.8477C129.476 48.7627 129.645 48.6777 129.73 48.5503C129.858 48.4228 129.943 48.2528 130.028 48.0829C130.113 47.913 130.113 47.7005 130.113 47.4881C130.113 47.2757 130.07 47.0632 130.028 46.8933C129.943 46.7233 129.858 46.5534 129.73 46.4259C129.603 46.2985 129.476 46.2135 129.306 46.1285C129.136 46.0436 128.923 46.0011 128.711 46.0011C128.498 46.0011 128.286 46.0436 128.116 46.1285C127.946 46.2135 127.776 46.2985 127.691 46.4259C127.564 46.5534 127.479 46.7233 127.394 46.8933C127.351 47.0632 127.309 47.2757 127.309 47.4881Z" fill="#008043"></path><path d="M131.982 45.3638H132.747V46.0436C132.747 46.0011 132.832 45.9161 132.875 45.8311C132.96 45.7462 133.045 45.6612 133.172 45.5762C133.299 45.4912 133.427 45.4488 133.597 45.3638C133.767 45.3213 133.937 45.2788 134.107 45.2788C134.404 45.2788 134.702 45.3638 134.914 45.4912C135.126 45.6187 135.296 45.8311 135.424 46.0861C135.551 45.8311 135.764 45.6187 136.019 45.4912C136.274 45.3638 136.528 45.2788 136.783 45.2788C137.123 45.2788 137.378 45.3213 137.591 45.4488C137.803 45.5762 137.973 45.7037 138.1 45.8736C138.228 46.0436 138.313 46.256 138.355 46.4684C138.398 46.6809 138.44 46.9358 138.44 47.1482V49.6124H137.633V47.2332C137.633 47.0632 137.633 46.9358 137.591 46.7658C137.591 46.5959 137.548 46.4684 137.463 46.3835C137.378 46.256 137.293 46.171 137.166 46.1285C137.038 46.0436 136.868 46.0436 136.698 46.0436C136.316 46.0436 136.019 46.171 135.849 46.3835C135.679 46.6384 135.594 46.9358 135.594 47.3182V49.6549H134.787V47.4456C134.787 47.2332 134.787 47.0632 134.744 46.8933C134.702 46.7233 134.702 46.5959 134.617 46.4684C134.574 46.341 134.447 46.256 134.362 46.171C134.234 46.086 134.107 46.0861 133.894 46.0861C133.767 46.0861 133.597 46.1285 133.469 46.171C133.342 46.2135 133.215 46.2985 133.13 46.4259C133.045 46.5534 132.96 46.6809 132.875 46.8508C132.832 47.0207 132.79 47.2332 132.79 47.4881V49.6974H131.982V45.3638Z" fill="#008043"></path><path d="M139.63 45.3638H140.395V46.0436C140.395 46.0011 140.437 45.9161 140.522 45.8311C140.607 45.7462 140.692 45.6612 140.819 45.5762C140.947 45.4912 141.074 45.4488 141.244 45.3638C141.414 45.3213 141.584 45.2788 141.754 45.2788C142.052 45.2788 142.349 45.3638 142.561 45.4912C142.774 45.6187 142.944 45.8311 143.071 46.0861C143.199 45.8311 143.411 45.6187 143.666 45.4912C143.921 45.3638 144.176 45.2788 144.431 45.2788C144.771 45.2788 145.026 45.3213 145.238 45.4488C145.45 45.5762 145.62 45.7037 145.748 45.8736C145.875 46.0436 145.96 46.256 146.003 46.4684C146.045 46.6809 146.088 46.9358 146.088 47.1482V49.6124H145.281V47.2332C145.281 47.0632 145.281 46.9358 145.238 46.7658C145.238 46.5959 145.196 46.4684 145.111 46.3835C145.026 46.256 144.941 46.171 144.813 46.1285C144.686 46.0436 144.516 46.0436 144.346 46.0436C143.963 46.0436 143.666 46.171 143.496 46.3835C143.326 46.6384 143.241 46.9358 143.241 47.3182V49.6549H142.434V47.4456C142.434 47.2332 142.434 47.0632 142.391 46.8933C142.391 46.7233 142.349 46.5959 142.264 46.4684C142.222 46.341 142.094 46.256 142.009 46.171C141.882 46.086 141.754 46.0861 141.542 46.0861C141.414 46.0861 141.244 46.1285 141.117 46.171C140.989 46.2135 140.862 46.2985 140.777 46.4259C140.692 46.5534 140.607 46.6809 140.522 46.8508C140.48 47.0207 140.437 47.2332 140.437 47.4881V49.6974H139.63V45.3638Z" fill="#008043"></path><path d="M147.107 43.8346C147.107 43.6646 147.15 43.5371 147.277 43.4097C147.405 43.2822 147.532 43.2397 147.702 43.2397C147.872 43.2397 148 43.2822 148.127 43.4097C148.255 43.5371 148.297 43.6646 148.297 43.8346C148.297 44.0045 148.255 44.132 148.127 44.2594C148 44.3869 147.872 44.4294 147.702 44.4294C147.532 44.4294 147.405 44.3869 147.277 44.2594C147.192 44.132 147.107 44.0045 147.107 43.8346ZM147.32 45.3641H148.127V49.6127H147.32V45.3641Z" fill="#008043"></path><path d="M151.654 46.4259C151.569 46.2985 151.441 46.2135 151.314 46.1285C151.186 46.0436 151.016 46.0011 150.804 46.0011C150.634 46.0011 150.464 46.0436 150.294 46.1285C150.167 46.2135 150.082 46.341 150.082 46.4684C150.082 46.5959 150.124 46.6809 150.209 46.7658C150.294 46.8508 150.379 46.8933 150.507 46.9358C150.634 46.9783 150.719 47.0208 150.846 47.0632C150.974 47.1057 151.101 47.1057 151.186 47.1057C151.356 47.1482 151.526 47.1907 151.696 47.2757C151.866 47.3182 151.994 47.4031 152.079 47.5306C152.206 47.6156 152.291 47.743 152.333 47.8705C152.376 47.9979 152.418 48.1679 152.418 48.3803C152.418 48.6352 152.376 48.8052 152.248 48.9751C152.164 49.1451 152.036 49.2725 151.866 49.4C151.696 49.5274 151.526 49.5699 151.314 49.6549C151.101 49.6974 150.889 49.7399 150.677 49.7399C150.337 49.7399 149.997 49.6974 149.742 49.5699C149.487 49.4425 149.232 49.2725 149.02 48.9751L149.614 48.4653C149.742 48.5927 149.912 48.7202 150.039 48.8052C150.209 48.8901 150.379 48.9751 150.634 48.9751C150.719 48.9751 150.846 48.9751 150.931 48.9326C151.016 48.8901 151.144 48.8902 151.229 48.8477C151.314 48.8052 151.356 48.7627 151.441 48.6777C151.484 48.5927 151.526 48.5503 151.526 48.4228C151.526 48.2953 151.484 48.2104 151.399 48.1254C151.314 48.0404 151.229 47.9979 151.144 47.9555C151.059 47.913 150.931 47.8705 150.804 47.828C150.676 47.7855 150.592 47.7855 150.507 47.743C150.337 47.7005 150.167 47.658 149.997 47.6156C149.827 47.5731 149.699 47.4881 149.572 47.4031C149.444 47.3182 149.359 47.1907 149.274 47.0632C149.189 46.9358 149.147 46.7658 149.147 46.5534C149.147 46.341 149.189 46.1285 149.274 45.9586C149.359 45.7886 149.487 45.6612 149.657 45.5337C149.827 45.4063 149.997 45.3638 150.167 45.2788C150.379 45.2363 150.549 45.1938 150.761 45.1938C151.059 45.1938 151.314 45.2363 151.569 45.3638C151.824 45.4912 152.036 45.6612 152.206 45.9161L151.654 46.4259Z" fill="#008043"></path><path d="M155.69 46.4259C155.605 46.2985 155.477 46.2135 155.35 46.1285C155.222 46.0436 155.053 46.0011 154.84 46.0011C154.628 46.0011 154.5 46.0436 154.33 46.1285C154.203 46.2135 154.118 46.341 154.118 46.4684C154.118 46.5959 154.16 46.6809 154.245 46.7658C154.33 46.8508 154.415 46.8933 154.543 46.9358C154.67 46.9783 154.755 47.0208 154.883 47.0632C155.01 47.1057 155.137 47.1057 155.222 47.1057C155.392 47.1482 155.562 47.1907 155.732 47.2757C155.902 47.3182 156.03 47.4031 156.115 47.5306C156.242 47.6156 156.327 47.743 156.37 47.8705C156.412 47.9979 156.455 48.1679 156.455 48.3803C156.455 48.6352 156.412 48.8052 156.285 48.9751C156.2 49.1451 156.072 49.2725 155.902 49.4C155.732 49.5274 155.562 49.5699 155.35 49.6549C155.137 49.6974 154.925 49.7399 154.713 49.7399C154.373 49.7399 154.033 49.6974 153.778 49.5699C153.523 49.4425 153.268 49.2725 153.056 48.9751L153.65 48.4653C153.778 48.5927 153.948 48.7202 154.075 48.8052C154.245 48.8901 154.415 48.9751 154.67 48.9751C154.755 48.9751 154.883 48.9751 154.968 48.9326C155.053 48.8901 155.18 48.8902 155.265 48.8477C155.35 48.8052 155.392 48.7627 155.477 48.6777C155.52 48.5927 155.562 48.5503 155.562 48.4228C155.562 48.2953 155.52 48.2104 155.435 48.1254C155.35 48.0404 155.265 47.9979 155.18 47.9555C155.095 47.913 154.968 47.8705 154.84 47.828C154.713 47.7855 154.628 47.7855 154.543 47.743C154.373 47.7005 154.203 47.658 154.033 47.6156C153.863 47.5731 153.735 47.4881 153.608 47.4031C153.481 47.3182 153.396 47.1907 153.311 47.0632C153.226 46.9358 153.183 46.7658 153.183 46.5534C153.183 46.341 153.226 46.1285 153.311 45.9586C153.396 45.7886 153.523 45.6612 153.693 45.5337C153.863 45.4063 154.033 45.3638 154.203 45.2788C154.415 45.2363 154.585 45.1938 154.798 45.1938C155.095 45.1938 155.35 45.2363 155.605 45.3638C155.86 45.4912 156.072 45.6612 156.242 45.9161L155.69 46.4259Z" fill="#008043"></path><path d="M157.219 43.8346C157.219 43.6646 157.261 43.5371 157.389 43.4097C157.516 43.2822 157.644 43.2397 157.814 43.2397C157.984 43.2397 158.111 43.2822 158.238 43.4097C158.366 43.5371 158.408 43.6646 158.408 43.8346C158.408 44.0045 158.366 44.132 158.238 44.2594C158.111 44.3869 157.984 44.4294 157.814 44.4294C157.644 44.4294 157.516 44.3869 157.389 44.2594C157.304 44.132 157.219 44.0045 157.219 43.8346ZM157.431 45.3641H158.238V49.6127H157.431V45.3641Z" fill="#008043"></path><path d="M159.258 47.4881C159.258 47.1907 159.301 46.8933 159.428 46.6384C159.556 46.3835 159.726 46.1285 159.896 45.9161C160.108 45.7037 160.32 45.5337 160.618 45.4488C160.873 45.3213 161.17 45.2788 161.51 45.2788C161.807 45.2788 162.105 45.3213 162.402 45.4488C162.657 45.5762 162.912 45.7462 163.125 45.9161C163.337 46.1285 163.507 46.341 163.592 46.6384C163.719 46.8933 163.762 47.1907 163.762 47.4881C163.762 47.7855 163.719 48.0829 163.592 48.3803C163.464 48.6352 163.295 48.8901 163.125 49.1026C162.912 49.315 162.7 49.4425 162.402 49.5699C162.147 49.6974 161.85 49.7399 161.51 49.7399C161.213 49.7399 160.915 49.6974 160.618 49.5699C160.363 49.4425 160.108 49.315 159.896 49.1026C159.683 48.8901 159.513 48.6777 159.428 48.3803C159.301 48.0829 159.258 47.7855 159.258 47.4881ZM160.108 47.4881C160.108 47.7005 160.151 47.913 160.193 48.0829C160.278 48.2528 160.363 48.4228 160.49 48.5503C160.618 48.6777 160.745 48.7627 160.915 48.8477C161.085 48.9326 161.298 48.9751 161.51 48.9751C161.723 48.9751 161.935 48.9326 162.105 48.8477C162.275 48.7627 162.445 48.6777 162.53 48.5503C162.657 48.4228 162.742 48.2528 162.827 48.0829C162.912 47.913 162.912 47.7005 162.912 47.4881C162.912 47.2757 162.87 47.0632 162.827 46.8933C162.742 46.7233 162.657 46.5534 162.53 46.4259C162.402 46.2985 162.275 46.2135 162.105 46.1285C161.935 46.0436 161.723 46.0011 161.51 46.0011C161.298 46.0011 161.085 46.0436 160.915 46.1285C160.745 46.2135 160.575 46.2985 160.49 46.4259C160.363 46.5534 160.278 46.7233 160.193 46.8933C160.151 47.0632 160.108 47.2757 160.108 47.4881Z" fill="#008043"></path><path d="M164.782 45.3643H165.589V46.0016C165.674 45.7891 165.886 45.5767 166.099 45.4492C166.354 45.3218 166.651 45.2368 166.949 45.2368C167.161 45.2368 167.331 45.2793 167.543 45.3218C167.713 45.3643 167.883 45.4917 168.053 45.6192C168.181 45.7466 168.308 45.9166 168.393 46.129C168.478 46.3414 168.521 46.5964 168.521 46.8513V49.5704H167.713V47.0637C167.713 46.8513 167.671 46.6813 167.628 46.5539C167.586 46.4264 167.501 46.299 167.416 46.214C167.331 46.129 167.203 46.0441 167.118 46.0441C166.991 46.0016 166.864 46.0016 166.736 46.0016C166.566 46.0016 166.396 46.0441 166.269 46.0865C166.141 46.129 166.014 46.214 165.886 46.3414C165.759 46.4689 165.674 46.5964 165.631 46.7663C165.589 46.9363 165.547 47.1487 165.547 47.4036V49.6129H164.739V45.3643H164.782Z" fill="#008043"></path><path d="M77.8123 5.00195H81.891L91.5779 27.3072H86.0547L84.1428 22.5912H75.4756L73.6062 27.3072H68.2104L77.8123 5.00195ZM79.7242 11.5023L77.0051 18.4276H82.4433L79.7242 11.5023Z" fill="#008043"></path><path d="M104.876 10.4827C104.494 9.97291 103.942 9.59053 103.262 9.3781C102.582 9.12318 101.945 8.99572 101.307 8.99572C100.967 8.99572 100.585 9.03822 100.203 9.12319C99.8204 9.20816 99.4805 9.33562 99.1406 9.50556C98.8007 9.67551 98.5458 9.93042 98.3334 10.2278C98.1209 10.5252 98.0359 10.8651 98.0359 11.29C98.0359 11.9698 98.2909 12.4796 98.8007 12.8195C99.3105 13.1594 99.9478 13.4993 100.713 13.7117C101.477 13.9666 102.285 14.2215 103.177 14.4764C104.069 14.7314 104.876 15.0713 105.641 15.5386C106.406 16.0059 107.043 16.6008 107.553 17.408C108.063 18.1728 108.318 19.2349 108.318 20.5095C108.318 21.7416 108.105 22.8462 107.638 23.7384C107.17 24.6731 106.533 25.4379 105.768 26.0327C104.961 26.6275 104.069 27.0949 103.049 27.3923C102.03 27.6897 100.925 27.8171 99.7779 27.8171C98.3333 27.8171 96.9738 27.6047 95.7417 27.1373C94.5096 26.7125 93.3625 25.9902 92.2578 25.013L95.7417 21.1893C96.2515 21.8691 96.8888 22.3789 97.6536 22.7613C98.4183 23.1436 99.2256 23.3136 100.033 23.3136C100.415 23.3136 100.84 23.2711 101.265 23.1861C101.69 23.1011 102.03 22.9312 102.37 22.7613C102.709 22.5913 102.964 22.3364 103.177 22.039C103.389 21.7416 103.474 21.4017 103.474 21.0193C103.474 20.3396 103.219 19.8297 102.709 19.4473C102.2 19.065 101.562 18.7251 100.755 18.4702C99.9903 18.2152 99.1406 17.9178 98.2484 17.6629C97.3562 17.408 96.5064 17.0256 95.7417 16.5583C94.9769 16.0909 94.3396 15.4961 93.7873 14.7314C93.2775 13.9666 93.0226 12.9894 93.0226 11.7573C93.0226 10.5677 93.2775 9.50556 93.7448 8.61335C94.2122 7.72114 94.8495 6.95639 95.6142 6.36158C96.4215 5.76678 97.3137 5.29942 98.3334 5.00202C99.353 4.70462 100.415 4.53467 101.52 4.53467C102.794 4.53467 103.984 4.70462 105.174 5.087C106.363 5.42689 107.425 6.02169 108.36 6.87141L104.876 10.4827Z" fill="#008043"></path><path d="M116.305 5.00195H111.376V27.3072H116.305V5.00195Z" fill="#008043"></path><path d="M134.999 10.8226C134.531 10.2278 133.937 9.80296 133.214 9.46307C132.492 9.16567 131.685 8.99572 130.793 8.99572C129.858 8.99572 129.008 9.16567 128.243 9.54805C127.436 9.88794 126.756 10.3978 126.204 11.0351C125.609 11.6724 125.184 12.4371 124.844 13.3293C124.505 14.2215 124.377 15.1562 124.377 16.1759C124.377 17.238 124.547 18.1728 124.844 19.065C125.184 19.9572 125.609 20.6794 126.204 21.3167C126.756 21.954 127.436 22.4639 128.201 22.8037C128.966 23.1436 129.773 23.3561 130.665 23.3561C131.685 23.3561 132.577 23.1436 133.342 22.7188C134.106 22.2939 134.744 21.6991 135.254 20.9768L139.332 24.0358C138.398 25.3529 137.208 26.3301 135.763 26.9674C134.319 27.6047 132.832 27.9021 131.302 27.9021C129.56 27.9021 127.946 27.6472 126.501 27.0949C125.014 26.5425 123.782 25.7778 122.678 24.7581C121.616 23.7384 120.766 22.5063 120.171 21.0618C119.576 19.6173 119.279 18.0028 119.279 16.2184C119.279 14.434 119.576 12.8195 120.171 11.375C120.766 9.93042 121.616 8.69832 122.678 7.67865C123.74 6.65898 125.014 5.89422 126.501 5.3419C127.988 4.78958 129.56 4.53467 131.302 4.53467C131.94 4.53467 132.577 4.57715 133.257 4.70461C133.937 4.83207 134.616 5.00202 135.254 5.25694C135.933 5.51186 136.571 5.85174 137.166 6.27661C137.76 6.70147 138.313 7.21131 138.822 7.80611L134.999 10.8226Z" fill="#008043"></path></svg>